<svg id="Layer_1" data-name="Layer 1" xmlns="http://www.w3.org/2000/svg" viewBox="0 0 432 432"><title>Artboard 1</title><path d="M69.06,235.25c-.24-1.11-.63-2.29,1.11-2.52,3.22,2.19,6.88,1.85,10.49,1.85q158.76,0,317.52,0c3.36,0,6.82-.61,10,1,2.54,1.89,1.85,4.55,1.52,7-.88,6.52-2.09,13-3.51,19.42-1.83,8.29-3.18,9.41-11.62,9.45q-26.49.13-53,0c-4.14,0-6.57,1.14-6.78,5.51a13.79,13.79,0,0,1-2.28,4.15c-4.8,6.57-11.15,7.93-19.09,7.13-42.43-4.25-85-3.07-127.55-2.24-27.79.55-55.76.6-83.32,5.52-6.36,1.14-10.9-2.63-15.67-5.79-9.35-9.54-12.4-21.9-15.44-34.31C70.18,246.14,71,240.48,69.06,235.25Z"/><path d="M70.34,176.46a71.44,71.44,0,0,1,12.87-30.55c3.06,1,4-1.51,5.31-3.24,3.89-5,7.35-10.38,13.62-12.84,4.45-1.71,8.75-1.09,13.07.54,37.64,14.21,76.76,19,116.67,17.19,21.27-1,42.37-4,62.87-10.21,4.9-1.48,9.85-2.79,15.05-2.11,3.65.44,6.09,2.8,8.16,5.52a15.84,15.84,0,0,0,6.35,5.07,67.43,67.43,0,0,1,13.91,31.9c-1.45,5.2-5.42,5.78-10,5.77q-40.23-.09-80.45,0-83.33,0-166.64.05C75.73,183.53,71.33,182.81,70.34,176.46Z"/><path d="M24.9,111.16A134,134,0,0,1,43.47,84.54c1.06-.31,2,.92,3.32-.71a214.67,214.67,0,0,1,60.13-49.15c3-1.91,6.11-3.7,9.76-4.14a28.35,28.35,0,0,1,14.26,2.56c8,3.46,16,6.8,24.55,8.85,1.67.4,3.29.91,4.26,2.5-.13,3.87-3.35,3.14-5.57,3.53-26.32,4.62-51.75,12-75.47,24.5C60.59,82.06,43.3,92.79,30.1,109,28.86,110.48,27.58,112.69,24.9,111.16Z"/><path d="M24.9,111.16c4.1-.85,5.07-4.92,7.41-7.48C43.9,91,58.1,81.77,73,73.62,99.34,59.12,127.65,50.2,157.47,46a7.2,7.2,0,0,0,2.16-1.15c1.92-2.06,4.59-2,7.07-2.36,23.64-3,47.34-2.89,71.07-1.34,3.59.23,7.2.24,10.76.81C261.75,44.09,275,46.12,288,49.53A210,210,0,0,1,365,88.2c4.86,3.78,8.53,8.74,12.9,13,4.14,5.71,8.68,11.21,11,19.48-38.16-46.18-87.19-68-144.4-73.25-48-4.38-95.12-1.12-140.62,16.28C72.84,75.6,45.36,92.75,23.29,118c-.9,1-1.53,2.72-3.91,1.92Z"/><path d="M359,352.86c2.43,3.18-1.11,4.22-2.38,5.56q-44.42,46.92-107.52,61.13c-80,17.91-166-14.89-213.31-81.61-.61-.85-1.06-1.81-1.59-2.72-.48-1.2.2-1.79,1.16-2.23,5.31,1.16,6.84,6.48,10.47,9.49,29.93,36.75,67.85,60.68,114.11,71.31,42,9.65,82.91,5.78,122.59-10.47,22.6-9.26,43.17-22,60.57-39.44C347.27,358.61,353.74,356.62,359,352.86Z"/><path d="M408.64,236.28l-297.25.1c-11.27,0-22.54,0-33.81,0-3.19,0-6-.42-7.41-3.68,2.33-.11,4.66-.33,7-.33q164.12,0,328.23,0c8.14,0,8.14,0,6.08,8.08C409.4,239.83,411,236.72,408.64,236.28Z"/><path d="M44.56,342.59l-8.8-9.12c-1.69-.8-2.69-1.85-1.35-3.74.57.19,1.29.22,1.69.59,32.83,29.89,72.46,44.91,115.52,51.25,51.21,7.53,102.26,6.69,152.62-6.91,17.55-4.73,34-12.14,50.07-20.48,1.41-.74,2.74-2.22,4.66-1.32-3.69,5.06-10.08,6.68-14.24,11.15-12,8.71-26.14,12.16-40,16.16-21.3,6.16-43.16,8.91-65.32,10.41A396.94,396.94,0,0,1,133.56,384,236.73,236.73,0,0,1,58.5,354.58,51.82,51.82,0,0,1,44.56,342.59Z"/><path d="M332,279.91c.46-.84.91-1.69,1.36-2.53,1.75-.75,3-.78,2.72,1.73-8.78,26.68-28.48,42.45-54.06,50.26-51.46,15.71-102.87,14.68-152.77-6.45C99.68,310.39,78.35,289.4,71,256.73c-1.59-7.06-2.65-14.2-1.92-21.48,4.22,3.95,2.48,9.47,3.57,14.22,2.81,12.26,6.14,24.21,14.13,34.3,19.62,23.67,45.06,37.42,74.64,44.5a220.61,220.61,0,0,0,49.22,5.83c27.46.26,54.77-2.25,80.27-14,15.23-7.05,27.64-17.33,35.87-32.19C328.32,285.07,330.37,282.63,332,279.91Z"/><path d="M70.34,176.46c3.09,6.49,9,5.06,14.36,5.06q121.26,0,242.51.08c4.29,0,8.21-.09,11-3.87,2,8.33,2.36,7.42-5.93,7.42l-256.35,0C67.61,185.17,67.35,184.76,70.34,176.46Z"/><path d="M116.09,32.05l-8.86,3.88c-2.3-.19-2.09-1.51-1.36-3,19.44-11.54,40.65-18.29,62.73-22.09A207,207,0,0,1,278.37,21.05a41.19,41.19,0,0,1,3.93,2c.54,1.79-.4,2.76-1.89,3.45-2.88.57-5.44-.63-8-1.54C223.91,8,175.84,9.58,128.16,28.05,124.19,29.59,120.09,30.65,116.09,32.05Z"/><path d="M128.84,108.4c16.61-8.73,34.61-12.65,53-14.31,36.37-3.28,71.63.66,104.5,18,2.22,1.18,4.67,2.05,6.34,4.1-.1,1.55-.57,2.84-2.29,3.25-3.12,0-5.67-1.67-8.28-3-23.47-12.27-48.51-17.19-74.89-17.52-24.53-.31-48.27,2.72-71.09,11.93a10.26,10.26,0,0,1-5.57,1C129.16,111.12,128.13,110.2,128.84,108.4Z"/><path d="M336.1,279.11a2.76,2.76,0,0,0-2.72-1.73c-.6-5.92,2.39-7.8,7.95-7.75,18.21.16,36.44-.18,54.65.2,5.4.11,7.65-1.72,8.39-6.79,1.29-8.94,4.1-17.63,4.27-26.76.85-.92,1.79-2.94,2.54,0a22.52,22.52,0,0,1,.29,4.21c-.77,9.76-3.06,19.24-5.18,28.77-.83,3.74-2.65,4.51-6.17,4.48-18.89-.17-37.79.07-56.68-.19C339,273.47,336.28,274.24,336.1,279.11Z"/><path d="M105.87,32.88a3.29,3.29,0,0,0,1.36,3c-9.92,6.8-20.46,12.66-29.9,20.23-10.94,8.78-20.7,18.73-30,29.1-2.66,2.95-2.73.28-3.84-.72,11.06-14.94,24.91-27,39.84-37.82C90.46,41.53,97.61,36.29,105.87,32.88Z"/><path d="M377.89,101.21c-5.53-2.42-8.74-7.36-12.64-11.56-5-3.62-8.8-8.51-13-12.92a220.7,220.7,0,0,0-21.63-19.61c-1.95-1.56-4.27-2.95-3.94-6,.77-1.13,1.71-1.85,3.17-1.29C348.28,63,363.42,79.37,376.43,97.85,377.12,98.84,378.17,99.76,377.89,101.21Z"/><path d="M329.81,49.79l-2.9,1.55c-2.06,1.48-3.61,0-5.07-1a189.15,189.15,0,0,0-26.51-15.7c-3.24-2.49-7.33-3.25-10.78-5.3-1.47-.88-4-.86-3.59-3.62L282.3,23A165,165,0,0,1,329.81,49.79Z"/><path d="M291.18,119a2.91,2.91,0,0,1,1.54-2.75c12.78,7.47,24.23,16.37,31.59,29.63-2.62,1.78-4.41.47-5.74-1.73a22.82,22.82,0,0,0-6.9-7.3c-7.1-4.6-12.9-10.85-19.88-15.62A1.75,1.75,0,0,1,291.18,119Z"/><path d="M128.84,108.4l1.4,2.85a1.62,1.62,0,0,1-.75,2.14c-9.5,4.94-17.87,11.75-27.46,16.54a3.1,3.1,0,0,1-2.86-2.29A90.54,90.54,0,0,1,128.84,108.4Z"/><path d="M99.17,127.64l3,1.57c.79,1.46-.62,1.81-1.29,2.54-5.6,3.94-9.59,9.33-13.26,15-2.34,3.59-3.22,1.08-4.38-.8A64.06,64.06,0,0,1,99.17,127.64Z"/><path d="M34.41,329.73l1.35,3.74-1.58,1.75-10.3-14.54C29.94,321.71,31,327.12,34.41,329.73Z"/><path d="M332,279.91c-5,15.69-15.77,26.9-29.19,35.58-16.88,10.93-35.95,15.61-55.68,18.12-11.56,1.47-23.19,2.76-34.78,2.36-31.08-1.08-61.63-5.12-89.57-20.22-13.74-7.44-25.94-16.85-35.27-29.59a8.17,8.17,0,0,1-.77-2.39c6,4,11.56,6.82,19.81,5.44,22.57-3.76,45.54-3.37,68.38-4.49,33.17-1.63,66.3-.63,99.45-.79,15.19-.07,30.42,1.47,45.57,2.95C326.26,287.5,327.81,281.82,332,279.91Z"/><path d="M100.85,131.75l1.29-2.54c8.69-7.05,18.46-12.4,28.1-18C185,90,238.75,90.81,291.18,119c7,5.72,15.13,10.21,20.49,17.85-12.62-.76-23.95,4.94-35.95,7.28a308,308,0,0,1-78.42,5.28c-29-1.82-57.53-6.91-84.64-18.08C108.6,129.61,104.76,130.74,100.85,131.75Z"/><path d="M281,25.68c4.61,3.43,10.73,3.92,15.13,7.75-15.52,2.29-29.57,11.15-45.81,10.2-30.25-2-60.48-2.13-90.65,1.26a179.84,179.84,0,0,1-32.26-11.43c-3.62-1.63-7.47-1.36-11.28-1.41,14.78-8.73,31.11-13.09,47.7-16.48A204.12,204.12,0,0,1,266,20.66C271,22.2,276,24,281,25.68Z"/><path d="M250.28,43.63c8.41-2.33,17.21-3.13,25.38-6.49,6.51-2.69,13.23-4.65,20.43-3.71C307.18,38,316.68,45.3,326.91,51.34c8.36,8.63,18.54,15.29,26.44,24.41,4,4.61,7.94,9.27,11.9,13.9-4.8-1.49-8-5.34-12-8.09C326.21,62.68,296.19,51.45,263.77,46,259.28,45.27,254.49,46,250.28,43.63Z"/><path d="M44.56,342.59c30.58,23.32,65.53,35.86,103.11,42.17a391.87,391.87,0,0,0,81.78,4.8c37.46-1.58,74.18-7.42,108.7-23.18,2.12-1,4.39-1.58,6.58-2.37-8.93,11.05-20.77,18.55-32.53,26-24.54,15.51-51.5,24.89-80.15,28.87a200,200,0,0,1-81.17-5.41c-36.61-10.08-68-29-94.47-56.18C52.06,352.8,47.29,348.46,44.56,342.59Z"/></svg>